<?xml version="1.0" standalone="no"?>
<!DOCTYPE svg PUBLIC "-//W3C//DTD SVG 20010904//EN"
 "http://www.w3.org/TR/2001/REC-SVG-20010904/DTD/svg10.dtd">
<svg version="1.0" xmlns="http://www.w3.org/2000/svg"
 width="512.000000pt" height="512.000000pt" viewBox="0 0 512.000000 512.000000"
 preserveAspectRatio="xMidYMid meet">
<metadata>
Created by potrace 1.14, written by Peter Selinger 2001-2017
</metadata>
<g transform="translate(0.000000,512.000000) scale(0.100000,-0.100000)"
fill="#000000" stroke="none">
<path d="M2435 5098 c-178 -60 -292 -229 -278 -414 2 -27 5 -60 6 -74 2 -22
-49 -54 -598 -372 -330 -191 -609 -352 -620 -357 -30 -13 -55 -45 -56 -72 -1
-13 8 -53 20 -89 43 -123 -2 -236 -119 -296 -45 -23 -142 -23 -191 0 -44 20
-95 69 -116 110 -27 52 -28 136 -4 191 38 87 94 129 193 144 91 15 126 60 97
124 -24 54 -95 63 -204 27 -240 -80 -348 -371 -218 -588 52 -87 147 -161 241
-187 l22 -6 0 -730 c0 -489 3 -736 10 -749 14 -27 38 -38 94 -45 213 -25 291
-299 118 -418 -132 -92 -289 -47 -355 102 -16 37 -18 57 -13 113 8 87 2 110
-34 132 -37 21 -86 11 -113 -25 -31 -43 -35 -171 -8 -257 99 -306 502 -382
700 -133 61 78 84 148 84 256 -1 50 -2 98 -4 108 -3 13 9 26 41 44 25 14 122
69 215 123 94 54 177 101 186 105 13 5 16 -2 15 -43 0 -85 23 -142 78 -198 76
-76 87 -77 500 -78 l350 -1 1 -369 0 -369 -35 -14 c-65 -25 -105 -48 -142 -81
l-37 -34 -58 33 c-32 18 -155 89 -273 158 -118 68 -233 134 -255 146 -22 12
-92 53 -155 90 -138 80 -177 90 -214 50 -31 -34 -34 -82 -7 -112 10 -11 211
-130 445 -264 l426 -244 -6 -45 c-16 -105 -4 -192 37 -272 30 -58 124 -149
184 -177 72 -34 171 -47 244 -34 123 23 241 108 241 172 0 71 -82 107 -138 63
-88 -71 -183 -88 -268 -48 -85 39 -136 118 -136 211 -1 172 182 285 336 209
17 -9 56 -42 87 -75 41 -44 62 -59 82 -59 16 0 82 31 155 73 70 41 321 186
557 322 237 137 463 268 504 291 l75 43 35 -31 c39 -34 139 -84 186 -93 139
-25 288 24 381 127 20 22 50 70 68 107 28 60 31 75 31 166 0 87 -3 107 -25
150 -38 77 -95 94 -148 45 -26 -24 -28 -58 -7 -115 55 -153 -59 -315 -220
-315 -86 0 -169 51 -206 127 -24 49 -36 158 -18 168 5 4 9 14 9 24 0 26 66 99
111 121 35 18 74 28 122 29 10 1 29 12 42 26 l25 24 0 791 0 791 -25 24 c-13
14 -32 25 -42 26 -85 3 -146 30 -195 88 -43 50 -57 96 -53 165 5 87 50 152
131 192 48 24 63 26 119 21 98 -9 156 -51 196 -142 18 -41 20 -58 14 -109 -12
-99 -10 -125 11 -146 27 -27 72 -32 106 -12 38 22 53 75 53 187 0 80 -3 97
-31 155 -76 161 -205 241 -382 237 -74 -2 -97 -7 -152 -33 -36 -17 -82 -45
-101 -62 l-36 -31 -259 150 c-142 83 -281 163 -309 178 -114 64 -462 265 -487
282 -15 11 -29 19 -32 19 -3 0 -40 21 -83 46 -43 25 -93 48 -111 51 -30 5 -38
1 -90 -55 -86 -93 -166 -120 -264 -90 -53 16 -122 78 -143 130 -62 153 40 315
204 324 59 3 103 -11 164 -53 47 -32 89 -34 121 -4 58 55 23 128 -92 188 -83
44 -213 53 -307 21z m-145 -683 c29 -31 92 -68 143 -84 20 -7 37 -16 38 -19 3
-19 5 -718 2 -727 -3 -8 -111 -11 -331 -10 -180 0 -351 -3 -380 -8 -94 -13
-178 -86 -203 -175 -10 -35 -13 -195 -13 -682 l0 -637 -60 -34 c-34 -20 -152
-88 -264 -153 -112 -64 -209 -119 -216 -122 -8 -3 -29 8 -47 24 -41 35 -103
70 -144 81 l-30 7 -3 683 c-2 643 -1 682 15 687 51 16 121 53 156 82 23 19 46
31 55 27 8 -3 56 -29 106 -59 109 -64 125 -70 161 -56 38 14 54 38 55 78 0 44
-23 65 -148 136 -80 45 -102 62 -97 75 11 28 15 139 6 187 l-9 46 42 24 c133
79 228 134 276 161 30 16 78 44 106 60 27 17 70 41 95 55 24 14 181 105 349
202 168 97 308 176 311 176 3 0 16 -11 29 -25z m840 -127 c135 -78 335 -194
445 -258 110 -64 207 -119 215 -123 8 -4 67 -37 130 -75 111 -65 115 -69 110
-97 -7 -45 -6 -166 3 -197 7 -26 2 -30 -222 -157 -125 -72 -230 -131 -232
-131 -2 0 -5 28 -7 62 -6 115 -59 196 -157 239 -49 22 -60 22 -410 23 l-360 0
0 370 0 370 50 21 c74 30 107 50 135 79 14 16 30 24 39 21 9 -3 126 -70 261
-147z m228 -897 c43 -23 45 -36 44 -430 -1 -207 1 -393 4 -414 6 -41 30 -62
77 -71 21 -4 36 2 59 23 l31 27 0 260 0 259 66 39 c36 21 82 48 101 58 19 11
112 65 206 119 94 55 175 99 180 99 5 0 21 -13 36 -28 24 -25 109 -70 161 -86
16 -5 17 -44 15 -687 l-3 -681 -44 -15 c-44 -15 -91 -42 -142 -84 l-27 -21
-298 172 c-164 95 -312 174 -329 177 -24 4 -39 -1 -61 -20 l-29 -25 -2 -140
c-1 -146 -8 -173 -45 -193 -32 -17 -1564 -17 -1596 0 -12 6 -27 21 -33 34 -18
32 -17 1563 0 1595 7 13 25 29 40 35 40 17 1557 15 1589 -2z m291 -1558 c36
-21 78 -44 92 -53 15 -8 88 -51 163 -94 106 -61 136 -83 131 -95 -12 -30 -16
-136 -7 -183 7 -33 6 -50 -2 -57 -6 -4 -132 -78 -281 -164 -148 -85 -369 -212
-490 -282 -121 -70 -260 -150 -308 -178 l-88 -50 -32 31 c-31 29 -124 82 -145
82 -35 0 -37 20 -37 391 l0 364 360 1 c348 1 362 2 411 23 96 42 152 127 156
240 1 33 4 61 7 61 2 0 34 -17 70 -37z"/>
<path d="M2280 3002 l-30 -30 0 -164 0 -164 -37 1 c-71 3 -119 -41 -109 -98 3
-12 5 -25 5 -29 2 -17 56 -42 95 -43 l41 -1 5 -168 5 -168 29 -24 c27 -24 32
-25 177 -23 168 1 235 14 318 61 340 194 305 695 -59 844 -59 25 -80 27 -237
32 l-172 4 -31 -30z m380 -165 c199 -87 249 -338 98 -487 -64 -62 -117 -82
-235 -87 l-103 -5 0 106 c0 58 3 106 8 107 4 0 27 2 52 4 85 7 120 89 60 145
-23 22 -38 27 -72 26 l-43 -1 -3 108 -3 109 103 -5 c60 -3 118 -11 138 -20z"/>
</g>
</svg>
